<?xml version="1.0" encoding="UTF-8" standalone="no"?>
<!-- Created with Inkscape (http://www.inkscape.org/) -->

<svg
   width="512"
   height="512"
   viewBox="0 0 135.46666 135.46667"
   version="1.1"
   id="svg5"
   inkscape:version="1.1.1 (3bf5ae0d25, 2021-09-20)"
   sodipodi:docname="Apex Predators Icon.svg"
   xmlns:inkscape="http://www.inkscape.org/namespaces/inkscape"
   xmlns:sodipodi="http://sodipodi.sourceforge.net/DTD/sodipodi-0.dtd"
   xmlns="http://www.w3.org/2000/svg"
   xmlns:svg="http://www.w3.org/2000/svg">
  <sodipodi:namedview
     id="namedview7"
     pagecolor="#ffffff"
     bordercolor="#000000"
     borderopacity="0.25"
     inkscape:pageshadow="2"
     inkscape:pageopacity="0.0"
     inkscape:pagecheckerboard="0"
     inkscape:document-units="px"
     showgrid="false"
     inkscape:zoom="0.70710678"
     inkscape:cx="217.08178"
     inkscape:cy="284.96403"
     inkscape:window-width="1366"
     inkscape:window-height="697"
     inkscape:window-x="-8"
     inkscape:window-y="-8"
     inkscape:window-maximized="1"
     inkscape:current-layer="layer1"
     units="px"
     width="512px" />
  <defs
     id="defs2" />
  <g
     inkscape:label="Layer 1"
     inkscape:groupmode="layer"
     id="layer1">
    <g
       id="g45887"
       transform="matrix(1.974267,0,0,1.974267,-136.08301,-210.72286)">
      <path
         style="fill:#721212;fill-opacity:1;stroke:none;stroke-width:0.264583px;stroke-linecap:butt;stroke-linejoin:miter;stroke-opacity:1"
         d="m 116.27847,159.77527 -12.90232,12.86142 -12.87943,-12.92034 v -3.49406 l -7.9013,-7.9013 v -38.85844 h 11.395363 l 9.385367,9.38549 9.3992,-9.39908 h 11.42481 v 38.69755 l -7.98967,7.98967 z"
         id="path56"
         sodipodi:nodetypes="ccccccccccccc" />
      <path
         style="fill:#921c1d;fill-opacity:1;stroke:#000000;stroke-width:0.264583px;stroke-linecap:butt;stroke-linejoin:miter;stroke-opacity:1"
         d="m 83.958141,111.64491 v 36.08296 l 7.396134,7.39601 -1.28e-4,3.34551 12.022003,11.98486 12.03113,-12.06818 v -3.27501 l 7.43109,-7.43125 v -36.0349 h -10.65491 l -8.80731,8.73568 -8.759812,-8.73568 z"
         id="path58"
         sodipodi:nodetypes="ccccccccccccc" />
      <g
         id="g43594">
        <path
           id="path5706"
           style="fill:#cccccc;fill-opacity:1;stroke:none;stroke-width:0.999999px;stroke-linecap:butt;stroke-linejoin:miter;stroke-opacity:1"
           d="m 317.10938,426.19141 c -0.99693,-1.5e-4 -1.96795,0.0332 -2.90821,0.0976 -8.16589,0.24794 -31.07201,5.2618 -42.02929,29.16992 -6.53864,13.78602 -8.37039,28.37134 0.23632,44.20704 8.62585,16.46861 19.948,22.29061 31.37891,51.3164 4.55368,-36.23187 -11.95759,-37.21677 -16.58008,-65.91015 -1.01845,-26.7436 28.40634,-37.91869 41.88672,-20.23243 1.34457,2.27373 0.23115,8.44131 -0.28906,12.59766 l -1.55078,-7.50977 c -0.23358,9.41904 -1.54435,18.67587 7.55664,29.50391 6.7478,8.8628 13.9947,17.34548 17.05273,29.01953 -2.49815,7.88338 -0.49571,14.63997 2.81055,21.07227 -10.79079,-14.61128 -2.82692,-17.04527 -6.92774,-25.62696 -1.40262,6.18943 -4.42715,10.41466 -9.30078,12.40235 -0.60139,1.58298 0.39864,3.00528 1.59766,4.4082 14.98749,5.62114 19.76198,27.63186 15.74609,35.60742 3.28045,7.08635 2.79947,12.31196 6.58789,22.18946 l 1.01758,-0.4375 c 1.15315,-10.24162 -1.84416,-13.59534 -0.33984,-20.87891 l 2.17969,-14.87305 c 0.9504,2.48644 1.2738,5.32197 0.58203,8.72071 2.90755,0.40112 4.5276,5.09108 6.39453,8.96093 1.35793,-5.15633 -0.74429,-11.46526 -2.56641,-17.68164 2.68406,5.19024 6.08239,10.75654 5.25977,17.03321 -1.54732,8.19775 1.58504,17.69628 3.01367,26.7207 0.96022,6.32043 -1.08029,5.34929 2.87891,14.66016 0.73911,2.53912 -1.15068,3.58632 1.78124,6.02929 l -2.19335,-43.71093 c -0.63251,-4.102 0.90206,-3.06623 1.22461,-1.79102 0.84996,2.17686 0.96212,-0.0758 1.30859,-0.91992 -0.25588,-1.66364 0.60738,-0.64108 1.21094,-0.24219 1.31289,2.16559 1.16773,0.37279 1.25976,-0.77539 -0.9137,-8.85275 0.52347,-3.13313 1.3086,-1.45313 0.35036,1.07793 0.9683,1.67506 2.22851,1.11524 1.523,1.55267 2.86389,1.55327 4.02149,0 1.54715,0.39779 1.66431,-0.83951 1.98632,-1.8418 1.19645,-4.27321 1.63021,-3.32691 1.54883,1.16211 -0.91846,4.03571 -0.19406,3.55635 1.06641,1.59961 0.91876,-1.41959 1.10136,-0.7762 1.11523,0.33789 0.29443,2.6346 0.94701,1.4957 1.59766,0.38867 2.05927,-1.27714 1.27358,0.48019 0.67773,2.03516 l -2.13086,44.0957 c 1.59115,-1.49695 2.53036,-3.64517 1.9375,-7.32617 2.99142,-4.50047 2.71531,-9.81699 2.90625,-15.01758 2.9,-11.0296 4.42988,-20.4474 3.10157,-24.22265 0.0113,-8.28012 1.44923,-14.26415 4.74804,-17.24805 -1.7743,6.16974 -3.49125,12.31219 -2.22851,17.05273 l 3.19726,-6.58789 c 1.39529,-3.63617 3.23682,-1.41506 2.8086,-6.7832 -0.34167,-4.18031 1.51044,-6.98359 1.64843,-0.28906 l 2.13086,16.56836 c -0.5272,5.16907 -1.5299,10.40466 -0.87109,15.40429 0.30085,0.73758 0.61586,1.42431 1.45312,0.19532 l 2.7129,-9.20508 0.77539,-8.42969 c 5.05209,-7.65347 0.56479,-7.26396 1.35547,-14.4375 3.12082,-16.31773 8.14369,-21.23196 13.5664,-23.73828 1.6636,-0.90376 3.96694,-0.52853 4.45703,-3.7793 2.79678,-3.88331 -1.92002,-4.18926 -4.07031,-5.71679 -2.76091,-3.00979 -3.84039,-6.22856 -4.55469,-9.49415 -1.75192,2.86923 -1.40586,7.13564 -0.87109,11.5293 -0.90316,5.1563 -2.85665,8.84362 -5.03906,12.20899 2.41077,-6.79193 4.32521,-13.43554 1.64843,-18.70118 1.54678,-5.30985 3.4023,-10.76072 7.75,-17.34375 9.89114,-12.63465 21.1923,-24.89756 16.85938,-41.27539 l -0.19336,4.74805 c -0.5043,2.22301 -1.97733,1.81294 -1.8418,-0.58203 v -9.20508 c 8.84818,-14.30706 42.54299,-12.95827 41.76172,20.73633 0.96386,20.73403 -22.69959,32.01216 -16.08398,64.82031 3.47115,-24.28845 20.13264,-27.87103 29.84179,-48.34961 10.09263,-20.81767 5.46604,-37.69879 1.22461,-46.45898 -11.20263,-25.21591 -33.98784,-28.88244 -37.65625,-28.92383 -36.72483,-2.12198 -58.54255,20.15096 -55.61523,50.38477 0.87791,5.0694 4.12102,6.476 3.2207,18.05859 -2.01706,10.91017 -6.23452,18.9377 -4.52148,43.98633 2.27996,7.65074 -0.18546,12.07485 -2.33008,16.71679 1.33062,-11.25634 -0.37405,-22.0339 -2.46484,-32.75 L 408.75,504.25781 c -4.19841,3.82821 -8.37043,7.92665 -12.74414,10.00196 -1.03941,4.98689 -1.31398,10.3305 -4.93359,14.11328 -4.21418,-4.40569 -4.51686,-9.1886 -5.61719,-14.11328 l -12.46875,-10.00196 c -0.0432,19.77476 -5.80027,34.37777 -2.74219,52.34375 -8.13041,-13.7571 2.15218,-26.1573 -6.57617,-56.18164 -2.04313,-10.6758 -0.53663,-17.80242 2.33008,-23.56836 2.28991,-37.06438 -28.61784,-50.65721 -48.88867,-50.66015 z m 80.83984,120.27929 c 0.52683,0.18764 -0.11572,7.92169 5.64062,13.08594 l -5.00195,10.75586 c 0.32731,-2.42751 0.42009,-4.27389 -1.16406,-1.98633 L 393.3125,576 c 1.33977,-4.26523 1.48303,-8.7015 1.98828,-13.08594 l 0.47852,3.76758 c 4.01794,-6.98785 2.32766,-6.67784 1.50781,-10.6875 -0.0915,-2.40843 -1.09643,-6.65908 0.3418,-9.11328 0.14503,-0.31071 0.24505,-0.43696 0.32031,-0.41016 z m -14.35938,0.33008 c 0.0712,0.0108 0.16217,0.14219 0.28907,0.41406 1.43822,2.4542 0.43521,6.7029 0.34375,9.11133 -0.81986,4.00966 -2.51208,3.70161 1.50586,10.68945 l 0.48046,-3.76953 c 0.50525,4.38444 0.64657,8.82071 1.98633,13.08594 l -4.11133,-7.67187 c -1.58415,-2.28756 -1.49137,-0.44119 -1.16406,1.98632 l -5.00195,-10.75781 c 5.75636,-5.16425 5.11574,-12.8983 5.64258,-13.08594 0.009,-0.003 0.0191,-0.004 0.0293,-0.002 z"
           transform="scale(0.26458333)" />
        <path
           style="fill:#2c2c2c;fill-opacity:1;stroke:#000000;stroke-width:0.264583;stroke-linecap:butt;stroke-linejoin:miter;stroke-miterlimit:4;stroke-dasharray:none;stroke-opacity:1"
           d="m 113.88299,134.78386 c -1.837,1.79843 -2.19019,2.62016 -7.55913,6.74341 l 0.83386,1.74023 c 0.14697,-0.29045 0.33646,-0.32574 0.58008,-0.0363 0.81629,-0.99465 1.89317,-1.69147 3.0454,-2.30219 -0.95331,-0.16784 -0.33003,-1.13626 0.0181,-1.50457 l 1.95777,-2.26594 c -0.084,-0.98264 0.68773,-1.60873 1.1239,-2.37464 z"
           id="path15498-4"
           sodipodi:nodetypes="cccccccc" />
        <path
           style="fill:#2c2c2c;fill-opacity:1;stroke:none;stroke-width:0.264583px;stroke-linecap:butt;stroke-linejoin:miter;stroke-opacity:1"
           d="m 126.4326,143.44215 0.92289,-4.17868 0.20509,1.20489 c 1.60467,-5.91193 3.6916,-6.02447 4.25559,-12.20277 -0.15719,-8.40088 -9.94445,-10.51267 -12.74113,-5.15285 l 0.23072,4.99904 c -0.16935,-3.49612 -0.78492,-7.04692 -1.15362,-3.46087 -0.95821,0.28829 -1.54808,1.31325 -2.07653,2.46106 l -0.12818,-0.38454 -1.38435,2.66615 c 0.18501,-3.03037 0.72276,-2.86206 1.40999,-4.35813 0.1998,-0.88875 -0.23461,-0.66603 -0.58963,-0.41018 l -2.33288,2.94815 c 0.58965,-1.11764 1.51869,-2.16383 1.25616,-3.46087 l -2.48669,2.38415 c 0.69874,-1.00978 1.40135,-2.02184 4.74267,-4.58885 1.19224,-1.04321 0.58216,-1.02142 -0.46145,-0.74345 -1.23051,0.49932 -2.17459,1.40783 -3.17887,2.23034 2.42379,-2.97912 4.23733,-2.69779 5.10157,-3.07633 0.56219,-0.30748 1.17051,-0.36305 0.17946,-0.99981 -1.36169,-0.83633 -2.83331,-0.68318 -4.25559,-0.97417 1.449,0.0784 3.18267,0.30852 3.66596,-0.12818 1.13629,-0.62469 1.70045,-0.43205 2.38416,-0.41018 l 0.69218,-1.07671 1.61507,0.23072 c 0.76195,-0.0952 1.20913,-0.55763 1.5638,-1.12798 0.57254,0.74344 1.37679,2.18203 1.71762,2.23033 0.76469,-0.29572 0.82064,-0.87493 0.92289,-1.43562 l 0.71781,1.12799 c 1.61922,0.0146 4.66815,2.57926 5.56303,7.30628 0.54012,-1.03806 -0.18312,-2.83413 -0.53836,-4.4094 0.63534,1.93086 1.64915,2.72629 0.82036,9.04953 -0.0409,0.41112 -0.12844,0.75312 0.12818,0.69218 l 0.79472,-1.69199 -2.74306,5.74249 c -0.17307,0.38598 -0.32675,0.75903 0.10254,0.74344 l 0.76908,-0.56399 c -2.30541,2.7646 -4.7698,5.46107 -5.6912,8.81881 z"
           id="path1024-5"
           sodipodi:nodetypes="cccccccccccccccccccccccccccccccccccccc" />
        <path
           style="fill:#2c2c2c;fill-opacity:1;stroke:none;stroke-width:0.264583px;stroke-linecap:butt;stroke-linejoin:miter;stroke-opacity:1"
           d="m 80.317818,143.38256 -0.922899,-4.17868 -0.205089,1.20489 c -1.011994,-4.04134 -4.538445,-8.41682 -4.255587,-12.20277 0.157194,-8.40088 9.944453,-10.51267 12.741127,-5.15285 l -0.230725,4.99904 c 0.180281,-0.93557 0.349901,-1.98309 0.717812,-0.94854 0.276854,1.80649 0.952271,3.65986 2.050886,5.56303 l -0.512723,-1.69198 1.615072,1.99961 c -1.718353,-2.55007 -2.915566,-4.74031 -2.614879,-5.89629 l 2.255975,4.10177 c -0.817526,-2.18869 -2.447675,-4.1839 -2.35852,-6.58847 0.958204,0.28829 1.548079,1.31325 2.076524,2.46106 l 0.12818,-0.38454 1.384348,2.66615 c -0.185008,-3.03037 -0.722754,-2.86206 -1.409986,-4.35813 -0.199798,-0.88875 0.23461,-0.66603 0.589632,-0.41018 l 2.332881,2.94815 c -0.589654,-1.11764 -1.51869,-2.16383 -1.256167,-3.46087 l 2.486699,2.38415 c -0.69874,-1.00978 -1.401358,-2.02184 -4.742674,-4.58885 -1.19224,-1.04321 -0.582163,-1.02142 0.461449,-0.74345 1.230513,0.49932 2.174595,1.40783 3.178873,2.23034 -2.423795,-2.97912 -4.237332,-2.69779 -5.101576,-3.07633 -0.562184,-0.30748 -1.170505,-0.36305 -0.179454,-0.99981 1.361684,-0.83633 2.83331,-0.68318 4.255587,-0.97417 -1.449,0.0784 -3.182674,0.30852 -3.665958,-0.12818 -1.136292,-0.62469 -1.700456,-0.43205 -2.384155,-0.41018 l -0.692174,-1.07671 -1.615072,0.23072 c -0.761953,-0.0952 -1.209127,-0.55763 -1.563801,-1.12798 -0.572539,0.74344 -1.376793,2.18203 -1.717617,2.23033 -0.764688,-0.29572 -0.820639,-0.87493 -0.922898,-1.43562 l -0.717809,1.12799 c -1.61922,0.0146 -4.668151,2.57926 -5.563029,7.30628 -0.540115,-1.03806 0.183117,-2.83413 0.538358,-4.4094 -0.635336,1.93086 -1.649145,2.72629 -0.820354,9.04953 0.146201,0.7739 -0.01228,0.67183 -0.12818,0.69218 l -0.794718,-1.69199 2.74306,5.74249 c 0.513527,1.06938 0.260761,0.98931 -0.102545,0.74344 l -0.769083,-0.56399 c 2.30541,2.7646 4.7698,5.46107 5.691209,8.81881 z"
           id="path1024"
           sodipodi:nodetypes="cccccccccccccccccccccccccccccccccccccccccccc" />
        <path
           style="fill:#2c2c2c;fill-opacity:1;stroke:#000000;stroke-width:0.264583;stroke-linecap:butt;stroke-linejoin:miter;stroke-miterlimit:4;stroke-dasharray:none;stroke-opacity:1"
           d="m 92.88501,134.88629 c 1.837006,1.79843 2.190194,2.62016 7.55914,6.74341 l -0.83386,1.74023 c -0.146968,-0.29045 -0.336463,-0.32574 -0.580078,-0.0363 -0.81629,-0.99465 -1.893184,-1.69147 -3.04541,-2.30219 0.953311,-0.16784 0.330031,-1.13626 -0.01812,-1.50457 l -1.957763,-2.26594 c 0.08398,-0.98264 -0.687735,-1.60873 -1.123909,-2.37464 z"
           id="path15498"
           sodipodi:nodetypes="cccccccc" />
      </g>
    </g>
  </g>
</svg>
